<?xml version="1.0" encoding="UTF-8" standalone="no"?>
<svg
   xml:space="preserve"
   id="Layer_1"
   x="0"
   y="0"
   version="1.1"
   viewBox="0 0 127.68947 105.80078"
   sodipodi:docname="logoUnipar.svg"
   width="127.68947"
   height="105.80078"
   inkscape:version="1.3 (0e150ed6c4, 2023-07-21)"
   xmlns:inkscape="http://www.inkscape.org/namespaces/inkscape"
   xmlns:sodipodi="http://sodipodi.sourceforge.net/DTD/sodipodi-0.dtd"
   xmlns="http://www.w3.org/2000/svg"
   xmlns:svg="http://www.w3.org/2000/svg"><defs
     id="defs4" /><sodipodi:namedview
     id="namedview4"
     pagecolor="#505050"
     bordercolor="#eeeeee"
     borderopacity="1"
     inkscape:showpageshadow="0"
     inkscape:pageopacity="0"
     inkscape:pagecheckerboard="0"
     inkscape:deskcolor="#505050"
     showgrid="false"
     inkscape:zoom="4.0666667"
     inkscape:cx="88.770492"
     inkscape:cy="62.581967"
     inkscape:window-width="1920"
     inkscape:window-height="1057"
     inkscape:window-x="-8"
     inkscape:window-y="-8"
     inkscape:window-maximized="1"
     inkscape:current-layer="Layer_1" /><style
     id="style1">.st1{fill:#e20613}</style><path
     id="path2"
     class="st1"
     d="M 0.9765625,1.2529301e-6 A 0.975,0.975 0 0 0 0,0.97461063 V 69.320313 c 0,5.057995 2.5830977,9.50805 6.4960938,12.123047 0.3529996,0.234 0.7988281,-0.05552 0.7988281,-0.478515 V 0.97461063 A 0.974,0.974 0 0 0 6.3203125,1.2529301e-6 Z m 10.8964845,0 A 0.975,0.975 0 0 0 10.896484,0.97461063 V 80.263673 h 0.002 c 0,5.079995 2.602066,9.544299 6.539062,12.154297 0.353,0.234 0.804688,-0.05547 0.804688,-0.480469 V 0.97461063 A 0.978,0.978 0 0 0 17.263672,1.2529301e-6 Z m 10.974609,0 A 0.976,0.976 0 0 0 21.871094,0.97461063 V 91.210939 c 0,2.657997 0.723798,5.144017 1.966797,7.291015 a 14.631,14.631 0 0 0 5.347656,5.341796 14.506,14.506 0 0 0 7.275391,1.95703 h 46.472656 a 0.979,0.979 0 0 0 0.976562,-0.97851 V 29.183595 h 25.343754 c -2.898,5.050995 -9.02057,8.221563 -15.351566,8.976562 -0.377,0.046 -0.515094,0.514204 -0.246094,0.783203 l 4.074219,4.072266 A 2.048,2.048 0 0 0 99.4375,43.59961 c 8.28899,-1.062999 15.12413,-6.763023 17.82812,-14.416015 a 21.836,21.836 0 0 0 0.93946,-10.94336 21.764,21.764 0 0 0 -2.625,-7.298828 22.056,22.056 0 0 0 -2.64258,-3.6484369 C 108.9285,2.8189745 103.10895,1.2529301e-6 96.626953,1.2529301e-6 H 55.699219 A 0.977,0.977 0 0 0 54.722656,0.97461063 V 76.611329 H 29.185547 V 0.97461063 A 0.974,0.974 0 0 0 28.210938,1.2529301e-6 Z M 62.021484,7.2949232 h 34.605469 c 3.693997,0 7.060867,1.3854397 9.630857,3.6484368 H 66.597656 a 0.979,0.979 0 0 0 -0.978515,0.978516 V 87.558595 H 29.185547 v -3.650391 h 32.835937 z m 10.94336,10.9453118 h 37.777346 c 0.302,1.167999 0.47656,2.388392 0.47656,3.650391 H 77.570312 a 0.974,0.974 0 0 0 -0.972656,0.974609 V 98.501954 H 36.433594 a 7.27,7.27 0 0 1 -6.283203,-3.648437 h 41.835937 a 0.975,0.975 0 0 0 0.978516,-0.97461 z m 47.908206,4.966797 c -0.10724,-0.006 -0.21977,0.07328 -0.21289,0.207031 a 21.55,21.55 0 0 1 -0.13868,3.978516 c -1.19199,9.336991 -8.05941,17.301269 -16.6914,20.447266 -0.425,0.156 -0.58081,0.694625 -0.25781,1.015625 l 4.03515,4.035156 c 0.417,0.417 1.04175,0.576281 1.59375,0.363281 8.19299,-3.167997 14.00391,-11.112884 14.00391,-20.421875 0,-3.408996 -0.77893,-6.635675 -2.16992,-9.513672 -0.0353,-0.07275 -0.0978,-0.10773 -0.16211,-0.111328 z m 4.41797,10.953125 c -0.083,0.02163 -0.15199,0.09367 -0.14649,0.201172 a 21.63,21.63 0 0 1 -0.14062,3.976563 c -0.982,7.693992 -5.82023,14.457332 -12.32422,18.361328 -0.409,0.245 -0.44638,0.813344 -0.10938,1.152343 l 3.9336,3.927735 c 0.414,0.416999 1.07254,0.459906 1.56054,0.128906 5.807,-3.933996 9.625,-10.586914 9.625,-18.128906 a 21.816,21.816 0 0 0 -2.17187,-9.515625 c -0.0475,-0.096 -0.14356,-0.125141 -0.22656,-0.103516 z" /></svg>
